<svg id="Layer_1" data-name="Layer 1" xmlns="http://www.w3.org/2000/svg" viewBox="0 0 459.12 151.11"><defs><style>.cls-1{fill:#0b4b89;}</style></defs><title>bc-1</title><path class="cls-1" d="M271.3,266.48c1.89-4.51,3.81-9,5.66-13.55,3.27-8,6.38-16.1,9.81-24.05.67-1.55,2.5-3.55,3.84-3.58s3.09,2.08,3.7,3.64c4.91,12.34,9.59,24.78,15.44,37.29,1.53-6.12,3.1-12.22,4.58-18.35,1.05-4.37,1.93-8.78,3-13.15.65-2.77.12-4.39-3.14-4.84-1.28-.18-2.34-1.88-3.5-2.88,1.28-.63,2.53-1.72,3.84-1.79,4.48-.24,9-.22,13.47-.07,1.07,0,2.1,1,3.14,1.52-.71,1.07-1.36,2.2-2.16,3.21-1.51,1.91-3.95,3.53-4.55,5.67-4.58,16.52-8.8,33.14-13.15,49.73-.59,2.26-.19,5-4,5.24-3.94.31-5.13-1.76-6.26-4.86-4.63-12.83-9.44-25.59-14.61-39.52-1.33,3.1-2.31,5.26-3.2,7.45-4.43,11-8.93,21.89-13.19,32.92-1.14,2.95-2.69,4.09-5.87,4-3.61-.11-3.25-2.77-3.7-4.87-3.56-16.6-7.05-33.22-10.58-49.82-.59-2.79-1-5.54-4.77-6.14-1.06-.17-1.81-2.19-2.71-3.36l.94-1.23c8.11,0,16.23-.07,24.34.1.86,0,1.69,1.41,2.54,2.16-.83.82-1.57,2.22-2.5,2.36-2.51.37-4.23,1.07-3.68,4q3,16.32,6.09,32.64Z" transform="translate(-69.97 -224.87)"/><path class="cls-1" d="M181.77,375.44c-13.24.34-24.73-3.5-30.92-16S145.2,334,153,321.86a23.59,23.59,0,0,1,3.56-4.17c12.14-11.67,38.43-12.93,51.64-2.51,10.44,8.22,13.94,22.76,9.12,37.84-4.15,13-15.52,21.63-29.52,22.4C185.77,375.53,183.77,375.44,181.77,375.44Zm22.83-32.73c-.69-7.39-1.72-14.38-5.85-20.61-4.51-6.81-11.12-8.5-18.72-7.75-7.23.72-12.71,4.21-15.17,11.16a43.32,43.32,0,0,0,1.76,34.38c3.63,7.5,10.25,10.15,18.13,9.85,8.08-.31,14.05-4.2,16.58-12C202.89,352.85,203.54,347.71,204.6,342.71Z" transform="translate(-69.97 -224.87)"/><path class="cls-1" d="M445.49,289.39c7.83-4.71,6-11.3,6.1-17.16.14-12-.25-24-.31-36,0-3.51-.43-6.27-4.89-6.45-.81,0-1.56-1.65-2.35-2.54.88-.73,1.76-2.1,2.62-2.1,14.65.1,29.33-.19,43.92.79,11.23.75,18.32,8.06,20.95,19.09,5.71,24-9.92,44.63-34.52,45.33-9,.26-18,.06-27,0A30.16,30.16,0,0,1,445.49,289.39Zm19.68-57.86c0,16.92-.05,33.36.1,49.8a4.15,4.15,0,0,0,2.37,3c10,3.19,22.86-2.13,27.12-11.49a38.4,38.4,0,0,0,.84-30.58c-2.23-5.83-6.72-9.8-12.88-10.59C477.21,231,471.54,231.53,465.17,231.53Z" transform="translate(-69.97 -224.87)"/><path class="cls-1" d="M422.08,256.85c5.9,8.9,11.67,17.63,17.47,26.34.36.54.92,1,1.34,1.47,1.21,1.43,2.39,2.87,3.59,4.31-2,.46-3.89,1-5.85,1.38-8.46,1.83-13.18-2-16.8-9.56-4.05-8.49-9.51-16.3-14.57-24.76a11.31,11.31,0,0,1,3.27-.87c9.39.51,13.51-11.34,10.16-18.55-2.18-4.68-9.78-7.66-14.16-5.36-.86.45-1.51,2.12-1.51,3.23-.1,15.5,0,31-.08,46.49,0,3.07,1.23,4.53,4.36,4.82,1.05.09,2,1.48,3,2.28-1.18.76-2.34,2.14-3.54,2.17-7.16.2-14.34.23-21.49,0-1.34,0-2.62-1.64-4.05-3.63,8.36.33,8.06-4.69,8-9.8q-.13-20.49,0-41c0-3.43-.67-5.81-4.78-6-.93-.06-1.78-1.76-2.66-2.7,1.1-.66,2.19-1.88,3.31-1.9,10.32-.19,20.65-.22,31-.21,9.78,0,14.84,2.94,16.82,9.53,2.19,7.27-1.36,15.31-8.85,20C424.93,255.18,423.79,255.83,422.08,256.85Z" transform="translate(-69.97 -224.87)"/><path class="cls-1" d="M146.2,255.85a11.24,11.24,0,0,1,3-.68c9.24.79,13.49-10.76,10.63-17.88-2.09-5.21-9.21-8.4-14.21-6.07a4.09,4.09,0,0,0-1.64,3.12c-.09,15.65,0,31.31-.05,47,0,2.84,1.19,4.15,4.13,4.45,1.1.11,2.05,1.75,3.07,2.69-1.13.64-2.24,1.8-3.38,1.82q-11,.24-22,0c-1.06,0-2.08-1.38-3.11-2.11,1-.83,1.9-2.31,2.9-2.36,3.64-.2,4.37-2.27,4.37-5.32q0-22.76.13-45.49c0-3.26-1.11-4.87-4.53-5.18-1-.1-1.94-1.89-2.9-2.91,1.15-.6,2.29-1.7,3.45-1.72q15.48-.27,31-.2c9.77,0,14.79,3,16.73,9.66,2.13,7.32-1.46,15.3-9,19.91-1.12.69-2.26,1.34-3.85,2.28,5.77,8.77,11.39,17.42,17.15,26,.78,1.15,2.34,1.75,3.37,2.78.8.8,1.93,2,1.8,2.79s-1.66,1.89-2.62,1.94a114.17,114.17,0,0,1-12,0,4.53,4.53,0,0,1-3.2-1.67C159.06,277.94,152.81,267.16,146.2,255.85Z" transform="translate(-69.97 -224.87)"/><path class="cls-1" d="M430.86,338.9c3.67,0,7.34-.08,11,.06,1,0,2,.78,2.94,1.2-.5.93-1,1.85-1.5,2.79-.84,1.63-2.28,3.24-2.36,4.91-.3,6.15,0,12.32-.24,18.48-.05,1.48-.95,3.82-2,4.24-12.85,4.94-26.17,7-39.65,3.46-17-4.46-25.84-17.09-25.06-34.38.7-15.59,11.52-27.43,28-30.53,11.53-2.17,22.88-1,34.09,2.17,2.9.82,4.72,2,3.58,5.67-.83,2.66-.64,5.63-1.29,8.37-.26,1.15-1.5,2.06-2.3,3.09-.85-1-2.45-2-2.42-2.93.21-6-3.81-8.06-8.39-9.66-13.61-4.75-27.83.14-33.33,11.4-6.45,13.22-1.89,31.48,9.81,38.81,6.81,4.26,14.18,4.5,21.62,2.06a4.8,4.8,0,0,0,2.76-3.38c.27-5.81.26-11.65,0-17.47-.05-1.14-1.62-2.45-2.8-3.22-.88-.58-2.36-.17-3.38-.63a29.59,29.59,0,0,1-3.9-2.54c1.46-.66,2.89-1.76,4.39-1.89C423.85,338.7,427.36,338.89,430.86,338.9Z" transform="translate(-69.97 -224.87)"/><path class="cls-1" d="M107.15,253.75c11.92,3.54,15.7,8.14,15,17.73-.62,8.88-8.48,17.62-18.21,18.43s-19.88.18-29.74.18c-.19-.55-.48-1-.38-1.14,5-4.86,3.92-11.16,3.94-17.13,0-11.65-.13-23.29-.17-34.94,0-3.7-.18-7.11-5.31-7.13-.78,0-1.56-1.63-2.34-2.5,1-.72,2.07-2.06,3.12-2.08,10.14-.19,20.28-.35,30.42-.14,9.83.2,15.21,3.88,16.52,10.64C121.47,243.13,117.25,249.19,107.15,253.75Zm-15.9,30.68c6.41,1.17,11.56.35,14.87-5.22,2.84-4.77,2.4-13.72-.71-17.65-2.92-3.67-8.57-5-14.16-3.3Zm0-32.49a69.36,69.36,0,0,0,7.63-.83c5.65-1.25,8.69-7.81,6.85-14.37-1.37-4.85-7.34-7.61-12.59-5.63a3.38,3.38,0,0,0-1.81,2.43C91.14,239.45,91.21,245.37,91.21,251.94Z" transform="translate(-69.97 -224.87)"/><path class="cls-1" d="M212,290.18c-17,.09-28.4-8-31.77-22.4-4-17.13,2.33-32.58,16.09-39.24,14.11-6.83,34.82-3.85,43.57,6.67,9.25,11.12,8.85,23.78,3.94,36.32-4.74,12.09-14.8,17.45-27.33,18.63C215,290.31,213.52,290.18,212,290.18Zm-18.65-34.7-1,.41c2,6.77,3.31,13.82,6.09,20.24,2.89,6.68,9.37,8.73,16.26,8.4s12.14-3.48,14.79-10.08a41.93,41.93,0,0,0,.32-31.63c-3.52-9.1-9.41-12.5-19.08-11.8-8.5.63-13.74,5.34-15.89,14.63C194.12,248.87,193.86,252.2,193.37,255.48Z" transform="translate(-69.97 -224.87)"/><path class="cls-1" d="M372.51,358.69c-.25,4.69-.2,9-.87,13.26-.21,1.3-2.35,3.27-3.64,3.29-14,.25-28,.21-42,.14-.95,0-1.9-.86-2.85-1.31.58-.92,1.2-1.8,1.72-2.74,1-1.88,2.85-3.76,2.9-5.68.35-15.15.37-30.31.47-45.47,0-3.87-.12-7.54-5.67-7.21-.76,0-1.6-1.54-2.41-2.37.91-.71,1.8-2,2.72-2,14.66-.25,29.31-.32,44-.49,3.13,0,4.1,1.32,3.57,4.34s-.55,6-1.09,8.92c-.15.83-1.32,1.48-2,2.21-.79-.82-2.35-1.73-2.26-2.44.66-5.69-3-6.17-7.11-6.31-18.71-.64-14.59-1.68-15.09,13.64-.34,10.47-1.6,9.42,9.07,9.37,4.23,0,9.18.95,9-6,0-.44,1.61-1.45,2.2-1.27.83.25,2,1.34,2,2.1.16,5.66.15,11.33,0,17,0,.77-1.3,1.49-2,2.23-.79-.82-2.26-1.65-2.24-2.44.12-4.83-2.8-5.69-6.72-6-11.4-.76-11.4-.83-11.38,10.31,0,3.5.15,7,0,10.49s1,4.9,4.54,4.72c4.15-.22,8.33-.31,12.49-.15,4.8.18,7.4-1.63,7.93-6.66C368.06,358.69,368.4,358.73,372.51,358.69Z" transform="translate(-69.97 -224.87)"/><path class="cls-1" d="M446.68,375.38c.27-1.55.18-2.56.52-2.74,5.23-2.68,4.58-7.6,4.61-12.16.08-13.66,0-27.32.08-41,0-3.76-.57-6.56-5.35-6.49-1,0-2.12-1.72-3.18-2.64l.83-1.64h50c-.38,4.57-.63,8.85-1.2,13.09-.1.7-1.6,1.7-2.42,1.67a2.82,2.82,0,0,1-1.9-2.07c.48-5.67-2.88-6.47-7.44-6.6-17.13-.48-14.44-2.1-14.94,14-.09,2.8,0,5.59,0,8.91,5.3,0,10.1.27,14.82-.2,1.12-.12,1.92-2.79,3-4.2a36.87,36.87,0,0,1,2.64-2.81c.71,1.08,2,2.13,2,3.24.22,5,.22,10,0,15-.05,1.13-1.27,2.22-1.95,3.33-.88-.94-2.55-1.92-2.51-2.82.2-4.79-2.79-5.5-6.43-5.56s-7.25,0-11.61,0v24.74c7.32,0,14.39.26,21.4-.25,1.23-.09,2.31-3.4,3.3-5.31.66-1.27.65-3.3,1.62-3.91,1.78-1.12,3.68-.72,3.51,2.11-.23,4-.42,8-1,11.94a3.53,3.53,0,0,1-2.52,2.32C477.52,375.42,462.4,375.38,446.68,375.38Z" transform="translate(-69.97 -224.87)"/><path class="cls-1" d="M368.39,290.4c-3.67,0-7.34.16-11-.1-1.1-.08-2.12-1.37-3.18-2.1.84-.79,1.67-2.25,2.53-2.27,4.56-.08,4.22-2.26,3-5.54-3.43-9.31-3.34-9.34-13.49-9.33h-3c-10.36,0-10.27,0-12.68,10.16-.72,3,0,4.26,3.16,4.66,1.18.16,2.19,1.69,3.28,2.59-1.14.63-2.25,1.76-3.41,1.81q-7,.32-14,0c-1.19-.05-2.34-1.13-3.51-1.74.89-.93,1.76-1.87,2.66-2.79,1.64-1.67,4-3,4.81-5,6.81-16.83,13.34-33.77,19.93-50.68,1-2.43,1.32-5,5.07-5.1s4.36,2.24,5.39,4.74c7,16.93,14,33.84,21,50.79,1.11,2.7,2.06,5.26,5.68,5.43.66,0,1.93,1.81,1.73,2.27a3.74,3.74,0,0,1-2.5,2.12C376.06,290.54,372.22,290.4,368.39,290.4Zm-14.75-25.63-8.78-22.06-8.31,22.06Z" transform="translate(-69.97 -224.87)"/><path class="cls-1" d="M147.88,365.61c-1.5,1.89-2.6,4.68-4.55,5.53-15.46,6.73-31,7-45.23-2.69-12-8.17-15.29-20.73-12.53-34.52,2.85-14.24,12.82-21.72,26.46-24.6,10.81-2.27,21.53-1.28,32.09,1.9,2.77.84,3.68,2.12,3,5.06s-.66,6.3-1.33,9.38c-.25,1.11-1.62,2-2.48,3-.73-.91-1.92-1.73-2.11-2.73-1.35-7.28-3.64-9.67-11-11-16-3-27.78,4.93-29.88,20.06-2.43,17.46,7.36,32.14,23,33.11,6.29.4,12.73-1.49,19.08-2.45a23.35,23.35,0,0,0,4.09-1.42Z" transform="translate(-69.97 -224.87)"/><path class="cls-1" d="M270,358.43c-.2,1.63-.41,3.26-.6,4.89-1.47,12.21-1.47,12.2-14,12.17-11.62,0-23.24,0-35.27,0,.29-1.43.23-2.69.63-2.85,4.67-2,4.51-6,4.5-10.05,0-14.49-.05-29,0-43.46,0-3.73-.95-6.05-5.28-6.05-1,0-2-1.82-3-2.81,1.08-.67,2.15-1.92,3.25-1.94,8-.19,16-.24,24-.05,1.14,0,2.24,1.55,3.36,2.38-.94.86-1.84,2.39-2.83,2.45-3.34.22-4.71,1.65-4.71,5q0,23.47-.21,47c0,2.83,1.14,3.89,3.86,3.8,3.49-.1,7,.07,10.48-.08,8.41-.34,8.3-.42,10.82-8.27.45-1.39,2.3-2.33,3.51-3.48Z" transform="translate(-69.97 -224.87)"/><path class="cls-1" d="M272.09,375.41a8.42,8.42,0,0,1-.1-1.54c6.38-4.21,5-10.78,5-16.84.07-12.49-.1-25,0-37.47,0-3.86-.63-6.43-5.33-6.48-1.15,0-2.29-2.14-3.44-3.29l1-1.57c9.27,0,18.55-.05,27.82.1.73,0,2.17,1.72,2,2.05-.52,1.1-1.61,2.74-2.48,2.74-4.25,0-5,2.7-5,5.93-.08,16-.07,32-.07,48,0,.45.35.9.78,1.92,4.6,0,9.38.13,14.16,0,8-.27,8.08-.31,10-7.88.72-2.82,1.72-4.23,5.16-2.6-.48,4.66-.81,9.43-1.55,14.15-.17,1.06-1.72,2.71-2.65,2.72C302.35,375.46,287.26,375.41,272.09,375.41Z" transform="translate(-69.97 -224.87)"/><path class="cls-1" d="M522.34,225.21l2.9,5,2.85-5.05,1,.25V235l-1.58-3.31-1.75,2.74-4.67-1.63v-7.12Z" transform="translate(-69.97 -224.87)"/><path class="cls-1" d="M517.25,232.9c-1.75-2.17-3.19-3.83-4.38-5.66-.11-.17,1.49-2.07,2.25-2a4.67,4.67,0,0,1,3.74,2.56l-3.52-.48a58.24,58.24,0,0,1,4.07,5.32c.13.21-1.44,2.14-2.21,2.13-1.66,0-3.32-.78-5-1.23l.37-1.51Z" transform="translate(-69.97 -224.87)"/></svg>