<svg id="Layer_1" data-name="Layer 1" xmlns="http://www.w3.org/2000/svg" viewBox="0 0 263.26 246.87"><defs><style>.cls-1{fill:#1c5894;}</style></defs><title>bc-2</title><path class="cls-1" d="M67,242.45,129,197.91c.13,2.57.3,4.29.3,6q0,41.73,0,83.46c0,43.22,28.84,76.94,71.09,83.21,41.89,6.22,83.18-23.44,90.91-65.31.42-2.27.77-4.54,1.36-8l37.71,82.88c-1.59.15-2.67.34-3.75.34q-95.44,0-190.9.08c-4.33,0-6.34-1.3-8.13-5.25Q98.39,310.94,68.88,246.75C68.27,245.42,67.72,244.06,67,242.45Z" transform="translate(-67.03 -133.69)"/><path class="cls-1" d="M255.46,301.54h17.16c-2.4,22.3-25.35,51.9-62.72,51.53-33.09-.32-61.15-27.09-62.57-59.93-1.47-34.37,23.58-63.67,57-66.7,33-3,64.19,20.07,68.4,51.29-5.3,0-10.55.28-15.72-.21-1.19-.11-2.49-2.69-3.15-4.37a46.37,46.37,0,0,0-87.71,30A47,47,0,0,0,209.92,336c18.68.5,36.73-11.68,43.63-29.44C254.16,305,254.73,303.48,255.46,301.54Z" transform="translate(-67.03 -133.69)"/><path class="cls-1" d="M258.1,221.3c-28.44-16.64-56.94-18.14-86.67-3.4-.15-1.48-.38-2.69-.38-3.9,0-14.16-.11-28.33.07-42.49,0-1.85.91-4.4,2.29-5.41,14.6-10.78,29.38-21.31,44.81-32.41Z" transform="translate(-67.03 -133.69)"/><path class="cls-1" d="M235,289.87c-.16,13.93-10.93,24.41-25,24.3A24.37,24.37,0,0,1,186,289.4c0-13.75,11.08-24.45,25.06-24.3A24.15,24.15,0,0,1,235,289.87Z" transform="translate(-67.03 -133.69)"/></svg>